STARTFONT 2.1
COMMENT
COMMENT Converted from OpenType font "Q:\font stuff\winfont\Mainframe BB.ttf" by "otf2bdf 3.0".
COMMENT
FONT -FreeType-Mainframe BB-Medium-R-Normal--36-360-72-72-P-215-ISO10646-1
SIZE 36 72 72
FONTBOUNDINGBOX 40 36 0 -5
STARTPROPERTIES 19
FOUNDRY "FreeType"
FAMILY_NAME "Mainframe BB"
WEIGHT_NAME "Medium"
SLANT "R"
SETWIDTH_NAME "Normal"
ADD_STYLE_NAME ""
PIXEL_SIZE 26
POINT_SIZE 360
RESOLUTION_X 72
RESOLUTION_Y 72
SPACING "P"
AVERAGE_WIDTH 215
CHARSET_REGISTRY "ISO10646"
CHARSET_ENCODING "1"
FONT_ASCENT 31
FONT_DESCENT 4
COPYRIGHT "© 2005 Nate Piekos. www.blambot.com"
_OTF_FONTFILE "Q:\font stuff\winfont\Mainframe BB.ttf"
_OTF_PSNAME "MainframeBB"
ENDPROPERTIES
CHARS 105
STARTCHAR 0020
ENCODING 32
SWIDTH 388 0
DWIDTH 14 0
BBX 0 0 0 0
BITMAP
ENDCHAR
STARTCHAR 0021
ENCODING 33
SWIDTH 361 0
DWIDTH 13 0
BBX 9 26 3 0
BITMAP
3E00
3E00
3E00
3E00
3E00
3E00
3E00
3E00
3E00
3E00
3E00
3E00
3E00
3E00
3E00
3E00
0000
0000
0000
0000
0000
FF00
FF80
FF80
FF80
FF00
ENDCHAR
STARTCHAR 0022
ENCODING 34
SWIDTH 500 0
DWIDTH 18 0
BBX 14 10 2 16
BITMAP
F87C
F87C
F87C
F87C
F87C
F87C
F87C
F87C
F87C
F87C
ENDCHAR
STARTCHAR 0023
ENCODING 35
SWIDTH 805 0
DWIDTH 29 0
BBX 25 26 2 0
BITMAP
0F80F800
0F80F800
0F80F800
0F80F800
0F80F800
FFFFFF80
FFFFFF80
FFFFFF80
FFFFFF80
FFFFFF80
0F80F800
0F80F800
0F80F800
0F80F800
0F80F800
0F80F800
FFFFFF80
FFFFFF80
FFFFFF80
FFFFFF80
FFFFFF80
0F80F800
0F80F800
0F80F800
0F80F800
0F80F800
ENDCHAR
STARTCHAR 0024
ENCODING 36
SWIDTH 833 0
DWIDTH 30 0
BBX 28 31 1 -3
BITMAP
000F8000
000F8000
007FFF80
00FFFF80
01FFFF80
03FFFF80
07FFFF80
0FEF8000
1FCF8000
3F8F8000
7F8F8000
FF0F8000
FFFFFFE0
FFFFFFF0
FFFFFFF0
FFFFFFF0
7FFFFFF0
000F8FF0
000F9FE0
000FBFC0
000FFF80
000FFF80
000FFF00
1FFFFE00
1FFFFC00
1FFFF800
1FFFF000
1FFFE000
000F8000
000F8000
000F8000
ENDCHAR
STARTCHAR 0025
ENCODING 37
SWIDTH 750 0
DWIDTH 27 0
BBX 24 26 1 0
BITMAP
1FF03F
3FF87F
7FFC7E
7FFCFC
7FFDF8
7C7DF8
7C7FF0
7C7FE0
7FFFE0
7FFFC0
7FFF80
3FFF00
1FFF00
007FFC
00FFFE
01FFFF
01FFFF
03FFFF
07FF1F
07FF1F
0FDF1F
1F9FFF
3F9FFF
3F1FFF
7E0FFE
FC07FC
ENDCHAR
STARTCHAR 0026
ENCODING 38
SWIDTH 805 0
DWIDTH 29 0
BBX 27 26 1 0
BITMAP
007FFF00
00FFFF00
01FFFF00
01FFFF00
01FFFF00
01F00000
01F00000
01F00000
01F00000
01F00000
7FFF83E0
FFFF83E0
FFFF83E0
FFFF83E0
FFFF83E0
F80003E0
7C0003E0
7C0003E0
7C0003E0
7C0003E0
3E0003E0
3FFFFFE0
3FFFFFE0
1FFFFFC0
0FFFFFC0
07FFFF00
ENDCHAR
STARTCHAR 0027
ENCODING 39
SWIDTH 250 0
DWIDTH 9 0
BBX 5 10 2 16
BITMAP
F8
F8
F8
F8
F8
F8
F8
F8
F8
F8
ENDCHAR
STARTCHAR 0028
ENCODING 40
SWIDTH 333 0
DWIDTH 12 0
BBX 9 32 1 -3
BITMAP
1F80
1F80
1F00
3F00
3E00
3E00
7E00
7E00
7C00
7C00
7C00
7C00
7C00
FC00
F800
F800
F800
F800
FC00
7C00
7C00
7C00
7C00
7C00
7C00
7E00
3E00
3E00
3F00
1F00
1F80
1F80
ENDCHAR
STARTCHAR 0029
ENCODING 41
SWIDTH 305 0
DWIDTH 11 0
BBX 9 32 1 -3
BITMAP
FC00
FC00
7C00
7E00
7E00
3E00
3E00
3F00
1F00
1F00
1F00
1F00
1F00
1F00
1F00
0F80
0F80
1F00
1F00
1F00
1F00
1F00
1F00
1F00
3F00
3E00
3E00
7E00
7E00
7C00
FC00
FC00
ENDCHAR
STARTCHAR 002A
ENCODING 42
SWIDTH 555 0
DWIDTH 20 0
BBX 17 17 2 9
BITMAP
03E000
03E000
23E400
7BFE00
7FFF00
FFFF00
FFFF00
3FFC00
1FFC00
7FFF00
FFFF80
7FFF00
7FFE00
33EE00
03E000
03E000
03E000
ENDCHAR
STARTCHAR 002B
ENCODING 43
SWIDTH 527 0
DWIDTH 19 0
BBX 17 16 1 5
BITMAP
03E000
03E000
03E000
03E000
03E000
03E000
FFFF80
FFFF80
FFFF80
FFFF80
FFFF80
03E000
03E000
03E000
03E000
03E000
ENDCHAR
STARTCHAR 002C
ENCODING 44
SWIDTH 361 0
DWIDTH 13 0
BBX 9 9 2 -4
BITMAP
FF80
FF80
FF80
FF80
FF80
0F80
0F80
0F80
0F80
ENDCHAR
STARTCHAR 002D
ENCODING 45
SWIDTH 527 0
DWIDTH 19 0
BBX 17 6 1 10
BITMAP
FFFF80
FFFF80
FFFF80
FFFF80
FFFF80
FFFF80
ENDCHAR
STARTCHAR 002E
ENCODING 46
SWIDTH 361 0
DWIDTH 13 0
BBX 9 5 2 0
BITMAP
7F80
FF80
FF80
FF80
7F80
ENDCHAR
STARTCHAR 002F
ENCODING 47
SWIDTH 666 0
DWIDTH 24 0
BBX 24 26 0 0
BITMAP
00003F
00007E
00007E
0000FC
0001F8
0003F8
0003F0
0007E0
000FC0
000FC0
001F80
003F00
003F00
007E00
00FC00
01FC00
01F800
03F000
07E000
07E000
0FC000
1F8000
3F8000
3F0000
7E0000
FC0000
ENDCHAR
STARTCHAR 0030
ENCODING 48
SWIDTH 805 0
DWIDTH 29 0
BBX 26 26 2 0
BITMAP
0FFFFF80
3FFFFF00
7FFFFF00
7FFFFF80
FFFFFF80
F801FFC0
F803F7C0
F807F7C0
F807E7C0
F80FC7C0
F81F87C0
F81F87C0
F83F07C0
F87E07C0
F8FE07C0
F8FC07C0
F9F807C0
FBF007C0
FBF007C0
FFE007C0
FFC007C0
FFFFFFC0
7FFFFF80
7FFFFF00
7FFFFF00
7FFFFC00
ENDCHAR
STARTCHAR 0031
ENCODING 49
SWIDTH 305 0
DWIDTH 11 0
BBX 9 26 1 0
BITMAP
FE00
FF00
FF00
FF80
FF80
0F80
0F80
0F80
0F80
0F80
0F80
0F80
0F80
0F80
0F80
0F80
0F80
0F80
0F80
0F80
0F80
0F80
0F80
0F80
0F80
0F80
ENDCHAR
STARTCHAR 0032
ENCODING 50
SWIDTH 777 0
DWIDTH 28 0
BBX 25 26 2 0
BITMAP
FFFE0000
FFFF0000
FFFF8000
FFFFC000
FFFFE000
F807F000
F803F800
0001FC00
0000FE00
00007F00
00003F80
3FFFFF80
7FFFFF80
FFFFFF80
FFFFFF80
FFFFFF00
F8000000
F8000000
F8000000
F8000000
F8000000
FFFFFF00
FFFFFF00
FFFFFF00
FFFFFF00
FFFFFF00
ENDCHAR
STARTCHAR 0033
ENCODING 51
SWIDTH 777 0
DWIDTH 28 0
BBX 25 26 2 0
BITMAP
FFFE0000
FFFF0000
FFFF8000
FFFF8000
FFFF8000
F80F8000
F80F8000
000F8000
000F8000
000F8000
FFFFFE00
FFFFFF00
FFFFFF80
FFFFFF80
FFFFFF80
00001F00
00001F00
00001F00
00001F00
00003E00
00003E00
FFFFFE00
FFFFFE00
FFFFFC00
FFFFF800
FFFFF000
ENDCHAR
STARTCHAR 0034
ENCODING 52
SWIDTH 750 0
DWIDTH 27 0
BBX 25 26 1 0
BITMAP
0F80F800
1F80F800
1F00F800
1F00F800
3F00F800
3E00F800
3E00F800
7E00F800
7C00F800
7C00F800
FC00F800
FFFFFF80
FFFFFF80
7FFFFF80
7FFFFF80
3FFFFF80
0000F800
0000F800
0000F800
0000F800
0000F800
0000F800
0000F800
0000F800
0000F800
0000F800
ENDCHAR
STARTCHAR 0035
ENCODING 53
SWIDTH 777 0
DWIDTH 28 0
BBX 25 26 2 0
BITMAP
FFFFF800
FFFFF800
FFFFF800
FFFFF800
FFFFF800
F8000000
F8000000
F8000000
F8000000
F8000000
FFFFFF00
FFFFFF80
FFFFFF80
FFFFFF80
FFFFFF80
00001F80
00003F00
00007E00
0000FE00
0001FC00
0003F800
7FFFF000
7FFFE000
7FFFC000
7FFF8000
7FFF0000
ENDCHAR
STARTCHAR 0036
ENCODING 54
SWIDTH 805 0
DWIDTH 29 0
BBX 26 26 2 0
BITMAP
0007FF00
001FFF00
003FFF00
007FFF00
00FFFF00
01FE0000
03F80000
07F00000
0FE00000
1FC00000
3FFFFF00
7FFFFF80
FFFFFFC0
FFFFFFC0
FFFFFFC0
F80007C0
F8000F80
F8000F80
F8000F80
F8000F80
F8001F80
FFFFFF00
FFFFFF00
7FFFFE00
3FFFFC00
0FFFF800
ENDCHAR
STARTCHAR 0037
ENCODING 55
SWIDTH 583 0
DWIDTH 21 0
BBX 20 26 1 0
BITMAP
FFFFC0
FFFFE0
FFFFF0
FFFFF0
FFFFF0
F803E0
F803E0
0007E0
0007C0
0007C0
000FC0
000F80
000F80
001F80
001F00
001F00
001F00
003E00
003E00
003E00
007E00
007C00
007C00
00FC00
00F800
00F800
ENDCHAR
STARTCHAR 0038
ENCODING 56
SWIDTH 805 0
DWIDTH 29 0
BBX 27 26 1 0
BITMAP
01FFE000
03FFF800
07FFF800
0FFFFC00
0FFFFC00
0F807C00
0F807C00
0F807C00
0F807C00
0F807C00
0F807C00
1FFFFF00
7FFFFFC0
7FFFFFC0
FFFFFFE0
FFFFFFE0
F80003E0
F80003E0
F80003E0
F80003E0
F80003E0
FFFFFFE0
FFFFFFE0
7FFFFFE0
3FFFFFC0
1FFFFF00
ENDCHAR
STARTCHAR 0039
ENCODING 57
SWIDTH 777 0
DWIDTH 28 0
BBX 26 26 1 0
BITMAP
07FFFC00
0FFFFF00
1FFFFF80
3FFFFF80
3FFFFFC0
7E0007C0
7C0007C0
7C0007C0
7C0007C0
7C0007C0
F80007C0
FFFFFFC0
FFFFFFC0
FFFFFF80
FFFFFF80
3FFFFF00
0000FE00
0001FC00
0003F800
0007F000
000FE000
3FFFC000
3FFF8000
3FFF0000
3FFE0000
3FF80000
ENDCHAR
STARTCHAR 003A
ENCODING 58
SWIDTH 361 0
DWIDTH 13 0
BBX 9 14 2 0
BITMAP
7F80
FF80
FF80
FF80
7F80
0000
0000
0000
0000
7F80
FF80
FF80
FF80
7F80
ENDCHAR
STARTCHAR 003B
ENCODING 59
SWIDTH 361 0
DWIDTH 13 0
BBX 9 18 2 -4
BITMAP
7F80
FF80
FF80
FF80
7F80
0000
0000
0000
0000
7F80
FF80
FF80
FF80
7F80
0F80
0F80
0F80
0F80
ENDCHAR
STARTCHAR 003C
ENCODING 60
SWIDTH 416 0
DWIDTH 15 0
BBX 12 32 1 -3
BITMAP
01F0
03F0
03E0
07E0
07E0
07C0
0FC0
0F80
1F80
1F00
3F00
3E00
7E00
7C00
7C00
FC00
F800
FC00
7C00
7E00
3E00
3F00
1F00
1F80
0F80
0FC0
07C0
07E0
07E0
03E0
03F0
01F0
ENDCHAR
STARTCHAR 003D
ENCODING 61
SWIDTH 555 0
DWIDTH 20 0
BBX 16 16 2 5
BITMAP
FFFF
FFFF
FFFF
FFFF
FFFF
0000
0000
0000
0000
0000
0000
FFFF
FFFF
FFFF
FFFF
FFFF
ENDCHAR
STARTCHAR 003E
ENCODING 62
SWIDTH 416 0
DWIDTH 15 0
BBX 12 32 2 -3
BITMAP
F800
F800
FC00
7C00
7E00
3E00
3F00
1F00
1F80
0F80
0FC0
07C0
07C0
07E0
03E0
03F0
03F0
03E0
07E0
07E0
07C0
0FC0
0F80
1F80
1F00
3F00
3E00
7E00
7C00
FC00
F800
F800
ENDCHAR
STARTCHAR 003F
ENCODING 63
SWIDTH 750 0
DWIDTH 27 0
BBX 21 26 3 0
BITMAP
3FF000
3FF800
3FFC00
3FFE00
3FFF00
007F80
003FC0
001FE0
000FF0
0007F0
0007F8
1FFFF8
3FFFF8
3FFFF8
3FFFF8
3FFFF0
3E0000
3E0000
000000
000000
000000
FF0000
FF8000
FF8000
FF8000
FF0000
ENDCHAR
STARTCHAR 0040
ENCODING 64
SWIDTH 1138 0
DWIDTH 41 0
BBX 37 26 3 0
BITMAP
1FFFFFFF80
3FFFFFFFC0
7FFFFFFFE0
FFFFFFFFF0
FFFFFFFFF0
F8000001F0
F8000000F8
F8000000F8
F8000000F8
F8000000F8
F807FE00F8
F80FFF00F8
F81FFF80F8
F81FFF80F8
F81FFF80F8
F81F07C0F8
F81F07C0F8
F81F07C0F8
F81F07C0F8
F81F07C0F8
F81F07C1F0
F81FFFFFF0
F81FFFFFF0
F81FFFFFE0
F80FFFFFC0
F807FFFF80
ENDCHAR
STARTCHAR 0041
ENCODING 65
SWIDTH 805 0
DWIDTH 29 0
BBX 26 26 2 0
BITMAP
0007FC00
001FFE00
003FFF00
007FFF80
00FFFFC0
01FE07C0
03F807C0
07F007C0
0FE007C0
1FC007C0
3F8007C0
7F0007C0
7E0007C0
FE0007C0
FC0007C0
FC0007C0
FFFFFFC0
FFFFFFC0
FFFFFFC0
FFFFFFC0
FFFFFFC0
F80007C0
F80007C0
F80007C0
F80007C0
F80007C0
ENDCHAR
STARTCHAR 0042
ENCODING 66
SWIDTH 888 0
DWIDTH 32 0
BBX 29 26 2 0
BITMAP
FFFFE000
FFFFF000
FFFFF800
FFFFF800
FFFFF800
F800F800
F800F800
F800F800
F800F800
F800F800
FFFFFFE0
FFFFFFF0
FFFFFFF8
FFFFFFF8
FFFFFFF8
F80001F0
F80001F0
F80001F0
F80001F0
F80003F0
F80003E0
FFFFFFE0
FFFFFFE0
FFFFFFC0
FFFFFF80
FFFFFF00
ENDCHAR
STARTCHAR 0043
ENCODING 67
SWIDTH 805 0
DWIDTH 29 0
BBX 26 26 1 0
BITMAP
0003FFC0
000FFFC0
001FFFC0
003FFFC0
007FFFC0
00FF07C0
01FC07C0
03F80000
07F00000
0FE00000
1FC00000
3F800000
7F000000
7E000000
7C000000
7C000000
FC000000
F8000000
F8000000
F8000000
7C000000
7FFFFFC0
7FFFFFC0
3FFFFFC0
1FFFFFC0
0FFFFFC0
ENDCHAR
STARTCHAR 0044
ENCODING 68
SWIDTH 777 0
DWIDTH 28 0
BBX 26 26 2 0
BITMAP
FFFFFC00
FFFFFF00
FFFFFF80
FFFFFF80
FFFFFFC0
F80007C0
F80007C0
F80007C0
F80007C0
F80007C0
F80007C0
F8000FC0
F8000FC0
F8003F80
F8007F00
F800FF00
F801FC00
F803F800
F807F000
F80FE000
F81FE000
FFFFC000
FFFF8000
FFFF0000
FFFC0000
FFF80000
ENDCHAR
STARTCHAR 0045
ENCODING 69
SWIDTH 777 0
DWIDTH 28 0
BBX 25 26 2 0
BITMAP
0FFFFF80
3FFFFF80
7FFFFF80
7FFFFF80
FFFFFF80
F8000000
F8000000
F8000000
F8000000
F8000000
FFFFFF80
FFFFFF80
FFFFFF80
FFFFFF80
FFFFFF80
F8000000
F8000000
F8000000
F8000000
F8000000
F8000000
FFFFF000
FFFFF000
FFFFF000
FFFFF000
FFFFF000
ENDCHAR
STARTCHAR 0046
ENCODING 70
SWIDTH 694 0
DWIDTH 25 0
BBX 22 26 2 0
BITMAP
0FFFFC
3FFFFC
7FFFFC
7FFFFC
FFFFFC
F80000
F80000
F80000
F80000
F80000
FFFFF8
FFFFF8
FFFFF8
FFFFF8
FFFFF8
F80000
F80000
F80000
F80000
F80000
F80000
F80000
F80000
F80000
F80000
F80000
ENDCHAR
STARTCHAR 0047
ENCODING 71
SWIDTH 805 0
DWIDTH 29 0
BBX 26 26 1 0
BITMAP
0007FFC0
000FFFC0
003FFFC0
007FFFC0
00FFFFC0
01FE07C0
03FC07C0
07F80000
0FF00000
1FE00000
3FC00000
3F83FFC0
7F03FFC0
7E03FFC0
FC03FFC0
F803FFC0
F80007C0
F80007C0
F80007C0
F80007C0
F80007C0
7FFFFFC0
7FFFFFC0
3FFFFFC0
1FFFFFC0
0FFFFFC0
ENDCHAR
STARTCHAR 0048
ENCODING 72
SWIDTH 805 0
DWIDTH 29 0
BBX 26 26 2 0
BITMAP
F80007C0
F80007C0
F80007C0
F80007C0
F80007C0
F80007C0
F80007C0
F80007C0
F80007C0
F80007C0
F80007C0
FFFFFFC0
FFFFFFC0
FFFFFFC0
FFFFFFC0
FFFFFFC0
F80007C0
F80007C0
F80007C0
F80007C0
F80007C0
F80007C0
F80007C0
F80007C0
F80007C0
F80007C0
ENDCHAR
STARTCHAR 0049
ENCODING 73
SWIDTH 750 0
DWIDTH 27 0
BBX 23 26 2 0
BITMAP
FFFFFE
FFFFFE
FFFFFE
FFFFFE
FFFFFE
F87C00
F87C00
007C00
007C00
007C00
007C00
007C00
007C00
007C00
007C00
007C00
007C00
007C00
007C00
007C00
007C00
FFFFFE
FFFFFE
FFFFFE
FFFFFE
FFFFFE
ENDCHAR
STARTCHAR 004A
ENCODING 74
SWIDTH 805 0
DWIDTH 29 0
BBX 26 26 1 0
BITMAP
07FFFFC0
07FFFFC0
07FFFFC0
07FFFFC0
07FFFFC0
07C007C0
07C007C0
000007C0
000007C0
000007C0
000007C0
000007C0
000007C0
000007C0
000007C0
000007C0
000007C0
F80007C0
F80007C0
F80007C0
7C0007C0
7FFFFFC0
7FFFFFC0
3FFFFF80
1FFFFF00
0FFFFE00
ENDCHAR
STARTCHAR 004B
ENCODING 75
SWIDTH 805 0
DWIDTH 29 0
BBX 26 26 2 0
BITMAP
F8001FC0
F8007FC0
F801FFC0
F807FFC0
F81FFFC0
F83FF000
F8FFC000
FBFF0000
FFFC0000
FFF80000
FFE00000
FF800000
FE000000
FE000000
FF800000
FFE00000
FFF80000
FFFC0000
FBFF0000
F8FFC000
F83FF000
F81FFFC0
F807FFC0
F801FFC0
F8007FC0
F8001FC0
ENDCHAR
STARTCHAR 004C
ENCODING 76
SWIDTH 666 0
DWIDTH 24 0
BBX 21 26 2 0
BITMAP
F80000
F80000
F80000
F80000
F80000
F80000
F80000
F80000
F80000
F80000
F80000
F80000
F80000
F80000
F80000
F80000
F80000
F80000
F80000
F80000
F80000
FFFFF8
FFFFF8
7FFFF8
3FFFF8
0FFFF8
ENDCHAR
STARTCHAR 004D
ENCODING 77
SWIDTH 916 0
DWIDTH 33 0
BBX 29 26 2 0
BITMAP
0FE03F80
1FF03FC0
3FF87FE0
3FFCFFF0
7FFDFFF8
FEFFF9F8
FC7FF9F8
F83FF0F8
F81FE0F8
F81FC0F8
F80F80F8
F80F80F8
F80F80F8
F80F80F8
F80F80F8
F80F80F8
F80F80F8
F80F80F8
F80F80F8
F80F80F8
F80F80F8
F80F80F8
F80F80F8
F80F80F8
F80F80F8
F80F80F8
ENDCHAR
STARTCHAR 004E
ENCODING 78
SWIDTH 833 0
DWIDTH 30 0
BBX 26 26 2 0
BITMAP
7FC007C0
FFE007C0
FFE007C0
FFF007C0
FFF807C0
F9F807C0
F8FC07C0
F87E07C0
F87E07C0
F83F07C0
F81F87C0
F81F87C0
F80FC7C0
F807C7C0
F807E7C0
F803F7C0
F803F7C0
F801FFC0
F800FFC0
F800FFC0
F8007FC0
F8003FC0
F8003FC0
F8001FC0
F8001FC0
F8000FC0
ENDCHAR
STARTCHAR 004F
ENCODING 79
SWIDTH 833 0
DWIDTH 30 0
BBX 26 26 2 0
BITMAP
0FFFFC00
3FFFFF00
3FFFFF80
7FFFFF80
FFFFFFC0
F80007C0
F80007C0
F80007C0
F80007C0
F80007C0
F80007C0
F80007C0
F80007C0
F80007C0
F80007C0
F80007C0
F80007C0
F80007C0
F80007C0
F80007C0
F80007C0
FFFFFFC0
7FFFFF80
7FFFFF80
3FFFFF00
0FFFFC00
ENDCHAR
STARTCHAR 0050
ENCODING 80
SWIDTH 805 0
DWIDTH 29 0
BBX 27 26 2 0
BITMAP
FFFFFC00
FFFFFF00
FFFFFF80
FFFFFFC0
FFFFFFC0
FC0007C0
FC0007C0
FC0007E0
FC0007E0
FC0007E0
FC0007E0
FC0007E0
FC0007C0
FFFFFFC0
FFFFFFC0
FFFFFF80
FFFFFF00
FFFFFC00
FC000000
FC000000
FC000000
FC000000
FC000000
FC000000
FC000000
FC000000
ENDCHAR
STARTCHAR 0051
ENCODING 81
SWIDTH 805 0
DWIDTH 29 0
BBX 25 26 2 0
BITMAP
0FFFF800
3FFFFE00
7FFFFE00
FFFFFF00
FFFFFF00
F8000F80
F8000F80
F8000F80
F8000F80
F8000F80
F8000F80
F8000F80
F8000F80
F83E0F80
F83E0F80
F83E0F80
F83E0F80
F83E0F80
F83E0F80
F83E0F80
F83E0F80
FFFFFF80
FFFFFF00
7FFFFE00
3FFFFE00
0FFFF800
ENDCHAR
STARTCHAR 0052
ENCODING 82
SWIDTH 805 0
DWIDTH 29 0
BBX 26 26 2 0
BITMAP
FFFFFE00
FFFFFF80
FFFFFF80
FFFFFFC0
FFFFFFC0
F80007C0
F80007C0
F80007C0
F80007C0
F80007C0
FFFFFFC0
FFFFFFC0
FFFFFF80
FFFFFF80
FFFFFE00
FFE00000
FFF80000
FFFC0000
FBFF0000
F8FFC000
F83FF000
F81FFFC0
F807FFC0
F801FFC0
F8007FC0
F8001FC0
ENDCHAR
STARTCHAR 0053
ENCODING 83
SWIDTH 833 0
DWIDTH 30 0
BBX 28 26 1 0
BITMAP
007FFF00
00FFFF00
01FFFF00
03FFFF00
07FFFF00
0FF00000
1FE00000
3FC00000
7F800000
FF000000
FFFFFFE0
FFFFFFF0
FFFFFFF0
FFFFFFF0
7FFFFFF0
00000FF0
00001FE0
00003FC0
00007F80
0000FF00
0000FE00
1FFFFC00
1FFFF800
1FFFF000
1FFFE000
1FFFC000
ENDCHAR
STARTCHAR 0054
ENCODING 84
SWIDTH 694 0
DWIDTH 25 0
BBX 23 26 1 0
BITMAP
FFFFFE
FFFFFE
FFFFFE
FFFFFE
FFFFFE
F83E00
F83E00
003E00
003E00
003E00
003E00
003E00
003E00
003E00
003E00
003E00
003E00
003E00
003E00
003E00
003E00
003E00
003E00
003E00
003E00
003E00
ENDCHAR
STARTCHAR 0055
ENCODING 85
SWIDTH 805 0
DWIDTH 29 0
BBX 26 26 2 0
BITMAP
F80007C0
F80007C0
F80007C0
F80007C0
F80007C0
F80007C0
F80007C0
F80007C0
F80007C0
F80007C0
F80007C0
F80007C0
F80007C0
F80007C0
F80007C0
F80007C0
F80007C0
F80007C0
F80007C0
F80007C0
F80007C0
FFFFFFC0
7FFFFF80
7FFFFF80
3FFFFF00
0FFFFC00
ENDCHAR
STARTCHAR 0056
ENCODING 86
SWIDTH 805 0
DWIDTH 29 0
BBX 26 26 2 0
BITMAP
F80007C0
F80007C0
F80007C0
F80007C0
F80007C0
F80007C0
F80007C0
F80007C0
F80007C0
F80007C0
F80007C0
F8000FC0
F8000FC0
F8001F80
F8003F80
F8007F00
F800FE00
F801FC00
F803F800
F807F000
F81FE000
FFFFC000
7FFF8000
7FFF0000
3FFE0000
0FF80000
ENDCHAR
STARTCHAR 0057
ENCODING 87
SWIDTH 916 0
DWIDTH 33 0
BBX 29 26 2 0
BITMAP
F80F80F8
F80F80F8
F80F80F8
F80F80F8
F80F80F8
F80F80F8
F80F80F8
F80F80F8
F80F80F8
F80F80F8
F80F80F8
F80F80F8
F80F80F8
F80F80F8
F80F80F8
F80F80F8
F81FC0F8
F83FE0F8
F83FE0F8
FC7FF1F8
FEFFFBF8
7FFDFFF0
7FF8FFF0
3FF0FFE0
1FF07FC0
0FE03F80
ENDCHAR
STARTCHAR 0058
ENCODING 88
SWIDTH 750 0
DWIDTH 27 0
BBX 25 26 1 0
BITMAP
FC001F80
7E003F80
7F003F00
3F007E00
1F80FC00
0FC1FC00
0FE1F800
07E3F000
03F7E000
01FFE000
01FFC000
00FF8000
00FF8000
00FF0000
00FF8000
00FF8000
01FFC000
03FFE000
03F7F000
07E3F000
0FC1F800
1FC0FC00
1F80FE00
3F007E00
7E003F00
FE001F80
ENDCHAR
STARTCHAR 0059
ENCODING 89
SWIDTH 694 0
DWIDTH 25 0
BBX 25 26 0 0
BITMAP
FC000F80
7C001F80
7E001F00
3E003F00
3F003E00
1F007E00
1F807E00
0F807C00
0FC0FC00
07C0F800
07E1F800
03E1F000
03F3F000
01F3E000
01FFE000
00FFE000
00FFC000
007FC000
007F8000
003F8000
003F0000
0FFF0000
0FFE0000
0FFE0000
0FFC0000
0FF80000
ENDCHAR
STARTCHAR 005A
ENCODING 90
SWIDTH 722 0
DWIDTH 26 0
BBX 23 26 2 0
BITMAP
FFFFFC
FFFFFE
FFFFFE
FFFFFE
FFFFFE
F800FE
F801FC
0003F8
0007F0
000FE0
001FC0
003F80
007F00
00FE00
01FC00
01F800
03F800
07F000
0FE000
3FC000
7F8000
FFFFFE
FFFFFE
FFFFFE
FFFFFE
FFFFFE
ENDCHAR
STARTCHAR 005B
ENCODING 91
SWIDTH 444 0
DWIDTH 16 0
BBX 11 36 2 -5
BITMAP
3FE0
7FE0
7FE0
FFE0
FFE0
F800
F800
F800
F800
F800
F800
F800
F800
F800
F800
F800
F800
F800
F800
F800
F800
F800
F800
F800
F800
F800
F800
F800
F800
F800
F800
FFE0
7FE0
7FE0
7FE0
3FE0
ENDCHAR
STARTCHAR 005C
ENCODING 92
SWIDTH 694 0
DWIDTH 25 0
BBX 24 26 0 0
BITMAP
FE0000
7E0000
3F0000
1F8000
1F8000
0FC000
07E000
07E000
03F000
01F800
01FC00
00FC00
007E00
003F00
003F00
001F80
000FC0
000FE0
0007E0
0003F0
0001F8
0001F8
0000FC
00007E
00007F
00003F
ENDCHAR
STARTCHAR 005D
ENCODING 93
SWIDTH 416 0
DWIDTH 15 0
BBX 11 36 2 -5
BITMAP
FF80
FFC0
FFE0
FFE0
FFE0
03E0
03E0
03E0
03E0
03E0
03E0
03E0
03E0
03E0
03E0
03E0
03E0
03E0
03E0
03E0
03E0
03E0
03E0
03E0
03E0
03E0
03E0
03E0
03E0
03E0
03E0
FFE0
FFE0
FFE0
FFE0
FF80
ENDCHAR
STARTCHAR 005E
ENCODING 94
SWIDTH 472 0
DWIDTH 17 0
BBX 13 8 2 19
BITMAP
0F00
3FE0
FFF8
FFF8
FFF8
F9F8
E038
8008
ENDCHAR
STARTCHAR 005F
ENCODING 95
SWIDTH 666 0
DWIDTH 24 0
BBX 22 5 1 -5
BITMAP
FFFFFC
FFFFFC
FFFFFC
FFFFFC
FFFFFC
ENDCHAR
STARTCHAR 0060
ENCODING 96
SWIDTH 333 0
DWIDTH 12 0
BBX 9 9 2 22
BITMAP
8000
F000
FC00
FF80
FF80
FF80
1F80
0780
0080
ENDCHAR
STARTCHAR 0061
ENCODING 97
SWIDTH 805 0
DWIDTH 29 0
BBX 26 26 2 0
BITMAP
0007FC00
001FFE00
003FFF00
007FFF80
00FFFFC0
01FE07C0
03F807C0
07F007C0
0FE007C0
1FC007C0
3F8007C0
7F0007C0
7E0007C0
FE0007C0
FC0007C0
FC0007C0
FFFFFFC0
FFFFFFC0
FFFFFFC0
FFFFFFC0
FFFFFFC0
F80007C0
F80007C0
F80007C0
F80007C0
F80007C0
ENDCHAR
STARTCHAR 0062
ENCODING 98
SWIDTH 888 0
DWIDTH 32 0
BBX 29 26 2 0
BITMAP
FFFFE000
FFFFF000
FFFFF800
FFFFF800
FFFFF800
F800F800
F800F800
F800F800
F800F800
F800F800
FFFFFFE0
FFFFFFF0
FFFFFFF8
FFFFFFF8
FFFFFFF8
F80001F0
F80001F0
F80001F0
F80001F0
F80003F0
F80003E0
FFFFFFE0
FFFFFFE0
FFFFFFC0
FFFFFF80
FFFFFF00
ENDCHAR
STARTCHAR 0063
ENCODING 99
SWIDTH 805 0
DWIDTH 29 0
BBX 26 26 1 0
BITMAP
0003FFC0
000FFFC0
001FFFC0
003FFFC0
007FFFC0
00FF07C0
01FC07C0
03F80000
07F00000
0FE00000
1FC00000
3F800000
7F000000
7E000000
7C000000
7C000000
FC000000
F8000000
F8000000
F8000000
7C000000
7FFFFFC0
7FFFFFC0
3FFFFFC0
1FFFFFC0
0FFFFFC0
ENDCHAR
STARTCHAR 0064
ENCODING 100
SWIDTH 777 0
DWIDTH 28 0
BBX 26 26 2 0
BITMAP
FFFFFC00
FFFFFF00
FFFFFF80
FFFFFF80
FFFFFFC0
F80007C0
F80007C0
F80007C0
F80007C0
F80007C0
F80007C0
F8000FC0
F8000FC0
F8003F80
F8007F00
F800FF00
F801FC00
F803F800
F807F000
F80FE000
F81FE000
FFFFC000
FFFF8000
FFFF0000
FFFC0000
FFF80000
ENDCHAR
STARTCHAR 0065
ENCODING 101
SWIDTH 777 0
DWIDTH 28 0
BBX 25 26 2 0
BITMAP
0FFFFF80
3FFFFF80
7FFFFF80
7FFFFF80
FFFFFF80
F8000000
F8000000
F8000000
F8000000
F8000000
FFFFFF80
FFFFFF80
FFFFFF80
FFFFFF80
FFFFFF80
F8000000
F8000000
F8000000
F8000000
F8000000
F8000000
FFFFF000
FFFFF000
FFFFF000
FFFFF000
FFFFF000
ENDCHAR
STARTCHAR 0066
ENCODING 102
SWIDTH 694 0
DWIDTH 25 0
BBX 22 26 2 0
BITMAP
0FFFFC
3FFFFC
7FFFFC
7FFFFC
FFFFFC
F80000
F80000
F80000
F80000
F80000
FFFFF8
FFFFF8
FFFFF8
FFFFF8
FFFFF8
F80000
F80000
F80000
F80000
F80000
F80000
F80000
F80000
F80000
F80000
F80000
ENDCHAR
STARTCHAR 0067
ENCODING 103
SWIDTH 805 0
DWIDTH 29 0
BBX 26 26 1 0
BITMAP
0007FFC0
000FFFC0
003FFFC0
007FFFC0
00FFFFC0
01FE07C0
03FC07C0
07F80000
0FF00000
1FE00000
3FC00000
3F83FFC0
7F03FFC0
7E03FFC0
FC03FFC0
F803FFC0
F80007C0
F80007C0
F80007C0
F80007C0
F80007C0
7FFFFFC0
7FFFFFC0
3FFFFFC0
1FFFFFC0
0FFFFFC0
ENDCHAR
STARTCHAR 0068
ENCODING 104
SWIDTH 805 0
DWIDTH 29 0
BBX 26 26 2 0
BITMAP
F80007C0
F80007C0
F80007C0
F80007C0
F80007C0
F80007C0
F80007C0
F80007C0
F80007C0
F80007C0
F80007C0
FFFFFFC0
FFFFFFC0
FFFFFFC0
FFFFFFC0
FFFFFFC0
F80007C0
F80007C0
F80007C0
F80007C0
F80007C0
F80007C0
F80007C0
F80007C0
F80007C0
F80007C0
ENDCHAR
STARTCHAR 0069
ENCODING 105
SWIDTH 305 0
DWIDTH 11 0
BBX 5 26 3 0
BITMAP
F8
F8
F8
F8
F8
F8
F8
F8
F8
F8
F8
F8
F8
F8
F8
F8
F8
F8
F8
F8
F8
F8
F8
F8
F8
F8
ENDCHAR
STARTCHAR 006A
ENCODING 106
SWIDTH 805 0
DWIDTH 29 0
BBX 26 26 1 0
BITMAP
07FFFFC0
07FFFFC0
07FFFFC0
07FFFFC0
07FFFFC0
07C007C0
07C007C0
000007C0
000007C0
000007C0
000007C0
000007C0
000007C0
000007C0
000007C0
000007C0
000007C0
F80007C0
F80007C0
F80007C0
7C0007C0
7FFFFFC0
7FFFFFC0
3FFFFF80
1FFFFF00
0FFFFE00
ENDCHAR
STARTCHAR 006B
ENCODING 107
SWIDTH 805 0
DWIDTH 29 0
BBX 26 26 2 0
BITMAP
F8001FC0
F8007FC0
F801FFC0
F807FFC0
F81FFFC0
F83FF000
F8FFC000
FBFF0000
FFFC0000
FFF80000
FFE00000
FF800000
FE000000
FE000000
FF800000
FFE00000
FFF80000
FFFC0000
FBFF0000
F8FFC000
F83FF000
F81FFFC0
F807FFC0
F801FFC0
F8007FC0
F8001FC0
ENDCHAR
STARTCHAR 006C
ENCODING 108
SWIDTH 666 0
DWIDTH 24 0
BBX 21 26 2 0
BITMAP
F80000
F80000
F80000
F80000
F80000
F80000
F80000
F80000
F80000
F80000
F80000
F80000
F80000
F80000
F80000
F80000
F80000
F80000
F80000
F80000
F80000
FFFFF8
FFFFF8
7FFFF8
3FFFF8
0FFFF8
ENDCHAR
STARTCHAR 006D
ENCODING 109
SWIDTH 916 0
DWIDTH 33 0
BBX 29 26 2 0
BITMAP
0FE03F80
1FF03FC0
3FF87FE0
3FFCFFF0
7FFDFFF8
FEFFF9F8
FC7FF9F8
F83FF0F8
F81FE0F8
F81FC0F8
F80F80F8
F80F80F8
F80F80F8
F80F80F8
F80F80F8
F80F80F8
F80F80F8
F80F80F8
F80F80F8
F80F80F8
F80F80F8
F80F80F8
F80F80F8
F80F80F8
F80F80F8
F80F80F8
ENDCHAR
STARTCHAR 006E
ENCODING 110
SWIDTH 833 0
DWIDTH 30 0
BBX 26 26 2 0
BITMAP
7FC007C0
FFE007C0
FFE007C0
FFF007C0
FFF807C0
F9F807C0
F8FC07C0
F87E07C0
F87E07C0
F83F07C0
F81F87C0
F81F87C0
F80FC7C0
F807C7C0
F807E7C0
F803F7C0
F803F7C0
F801FFC0
F800FFC0
F800FFC0
F8007FC0
F8003FC0
F8003FC0
F8001FC0
F8001FC0
F8000FC0
ENDCHAR
STARTCHAR 006F
ENCODING 111
SWIDTH 833 0
DWIDTH 30 0
BBX 26 26 2 0
BITMAP
0FFFFC00
3FFFFF00
3FFFFF80
7FFFFF80
FFFFFFC0
F80007C0
F80007C0
F80007C0
F80007C0
F80007C0
F80007C0
F80007C0
F80007C0
F80007C0
F80007C0
F80007C0
F80007C0
F80007C0
F80007C0
F80007C0
F80007C0
FFFFFFC0
7FFFFF80
7FFFFF80
3FFFFF00
0FFFFC00
ENDCHAR
STARTCHAR 0070
ENCODING 112
SWIDTH 805 0
DWIDTH 29 0
BBX 27 26 2 0
BITMAP
FFFFFC00
FFFFFF00
FFFFFF80
FFFFFFC0
FFFFFFC0
FC0007C0
FC0007C0
FC0007E0
FC0007E0
FC0007E0
FC0007E0
FC0007E0
FC0007C0
FFFFFFC0
FFFFFFC0
FFFFFF80
FFFFFF00
FFFFFC00
FC000000
FC000000
FC000000
FC000000
FC000000
FC000000
FC000000
FC000000
ENDCHAR
STARTCHAR 0071
ENCODING 113
SWIDTH 805 0
DWIDTH 29 0
BBX 25 26 2 0
BITMAP
0FFFF800
3FFFFE00
7FFFFE00
FFFFFF00
FFFFFF00
F8000F80
F8000F80
F8000F80
F8000F80
F8000F80
F8000F80
F8000F80
F8000F80
F83E0F80
F83E0F80
F83E0F80
F83E0F80
F83E0F80
F83E0F80
F83E0F80
F83E0F80
FFFFFF80
FFFFFF00
7FFFFE00
3FFFFE00
0FFFF800
ENDCHAR
STARTCHAR 0072
ENCODING 114
SWIDTH 805 0
DWIDTH 29 0
BBX 26 26 2 0
BITMAP
FFFFFE00
FFFFFF80
FFFFFF80
FFFFFFC0
FFFFFFC0
F80007C0
F80007C0
F80007C0
F80007C0
F80007C0
FFFFFFC0
FFFFFFC0
FFFFFF80
FFFFFF80
FFFFFE00
FFE00000
FFF80000
FFFC0000
FBFF0000
F8FFC000
F83FF000
F81FFFC0
F807FFC0
F801FFC0
F8007FC0
F8001FC0
ENDCHAR
STARTCHAR 0073
ENCODING 115
SWIDTH 833 0
DWIDTH 30 0
BBX 28 26 1 0
BITMAP
007FFF00
00FFFF00
01FFFF00
03FFFF00
07FFFF00
0FF00000
1FE00000
3FC00000
7F800000
FF000000
FFFFFFE0
FFFFFFF0
FFFFFFF0
FFFFFFF0
7FFFFFF0
00000FF0
00001FE0
00003FC0
00007F80
0000FF00
0000FE00
1FFFFC00
1FFFF800
1FFFF000
1FFFE000
1FFFC000
ENDCHAR
STARTCHAR 0074
ENCODING 116
SWIDTH 694 0
DWIDTH 25 0
BBX 23 26 1 0
BITMAP
FFFFFE
FFFFFE
FFFFFE
FFFFFE
FFFFFE
F83E00
F83E00
003E00
003E00
003E00
003E00
003E00
003E00
003E00
003E00
003E00
003E00
003E00
003E00
003E00
003E00
003E00
003E00
003E00
003E00
003E00
ENDCHAR
STARTCHAR 0075
ENCODING 117
SWIDTH 805 0
DWIDTH 29 0
BBX 26 26 2 0
BITMAP
F80007C0
F80007C0
F80007C0
F80007C0
F80007C0
F80007C0
F80007C0
F80007C0
F80007C0
F80007C0
F80007C0
F80007C0
F80007C0
F80007C0
F80007C0
F80007C0
F80007C0
F80007C0
F80007C0
F80007C0
F80007C0
FFFFFFC0
7FFFFF80
7FFFFF80
3FFFFF00
0FFFFC00
ENDCHAR
STARTCHAR 0076
ENCODING 118
SWIDTH 805 0
DWIDTH 29 0
BBX 26 26 2 0
BITMAP
F80007C0
F80007C0
F80007C0
F80007C0
F80007C0
F80007C0
F80007C0
F80007C0
F80007C0
F80007C0
F80007C0
F8000FC0
F8000FC0
F8001F80
F8003F80
F8007F00
F800FE00
F801FC00
F803F800
F807F000
F81FE000
FFFFC000
7FFF8000
7FFF0000
3FFE0000
0FF80000
ENDCHAR
STARTCHAR 0077
ENCODING 119
SWIDTH 916 0
DWIDTH 33 0
BBX 29 26 2 0
BITMAP
F80F80F8
F80F80F8
F80F80F8
F80F80F8
F80F80F8
F80F80F8
F80F80F8
F80F80F8
F80F80F8
F80F80F8
F80F80F8
F80F80F8
F80F80F8
F80F80F8
F80F80F8
F80F80F8
F81FC0F8
F83FE0F8
F83FE0F8
FC7FF1F8
FEFFFBF8
7FFDFFF0
7FF8FFF0
3FF0FFE0
1FF07FC0
0FE03F80
ENDCHAR
STARTCHAR 0078
ENCODING 120
SWIDTH 750 0
DWIDTH 27 0
BBX 25 26 1 0
BITMAP
FC001F80
7E003F80
7F003F00
3F007E00
1F80FC00
0FC1FC00
0FE1F800
07E3F000
03F7E000
01FFE000
01FFC000
00FF8000
00FF8000
00FF0000
00FF8000
00FF8000
01FFC000
03FFE000
03F7F000
07E3F000
0FC1F800
1FC0FC00
1F80FE00
3F007E00
7E003F00
FE001F80
ENDCHAR
STARTCHAR 0079
ENCODING 121
SWIDTH 694 0
DWIDTH 25 0
BBX 25 26 0 0
BITMAP
FC000F80
7C001F80
7E001F00
3E003F00
3F003E00
1F007E00
1F807E00
0F807C00
0FC0FC00
07C0F800
07E1F800
03E1F000
03F3F000
01F3E000
01FFE000
00FFE000
00FFC000
007FC000
007F8000
003F8000
003F0000
0FFF0000
0FFE0000
0FFE0000
0FFC0000
0FF80000
ENDCHAR
STARTCHAR 007A
ENCODING 122
SWIDTH 722 0
DWIDTH 26 0
BBX 23 26 2 0
BITMAP
FFFFFC
FFFFFE
FFFFFE
FFFFFE
FFFFFE
F800FE
F801FC
0003F8
0007F0
000FE0
001FC0
003F80
007F00
00FE00
01FC00
01F800
03F800
07F000
0FE000
3FC000
7F8000
FFFFFE
FFFFFE
FFFFFE
FFFFFE
FFFFFE
ENDCHAR
STARTCHAR 007B
ENCODING 123
SWIDTH 388 0
DWIDTH 14 0
BBX 12 36 1 -5
BITMAP
1FF0
7FF0
FFF0
7FF0
7FF0
7C00
7E00
3E00
3E00
3F00
1F00
1F00
1F80
0F80
0F80
0F80
07C0
07C0
07C0
0FC0
0F80
0F80
0F80
1F80
1F00
1F00
3F00
3E00
3E00
7E00
7C00
7FF0
7FF0
3FF0
3FF0
0FF0
ENDCHAR
STARTCHAR 007C
ENCODING 124
SWIDTH 250 0
DWIDTH 9 0
BBX 5 32 2 -3
BITMAP
F8
F8
F8
F8
F8
F8
F8
F8
F8
F8
F8
F8
F8
F8
F8
F8
F8
F8
F8
F8
F8
F8
F8
F8
F8
F8
F8
F8
F8
F8
F8
F8
ENDCHAR
STARTCHAR 007D
ENCODING 125
SWIDTH 388 0
DWIDTH 14 0
BBX 11 36 2 -5
BITMAP
FF00
FFC0
FFC0
FFE0
FFE0
07E0
07C0
07C0
0FC0
0F80
0F80
1F80
1F00
1F00
3F00
3E00
3E00
7E00
7E00
3E00
3E00
3F00
1F00
1F00
1F80
0F80
0F80
0FC0
07C0
07C0
07E0
FFE0
FFE0
FFE0
FFE0
FF80
ENDCHAR
STARTCHAR 007E
ENCODING 126
SWIDTH 555 0
DWIDTH 20 0
BBX 16 8 2 8
BITMAP
1C00
FF00
FFE7
FFFF
FFFF
F7FF
01FF
0038
ENDCHAR
STARTCHAR 00A2
ENCODING 162
SWIDTH 527 0
DWIDTH 19 0
BBX 15 26 2 0
BITMAP
07C0
07C0
07C0
07C0
07C0
1FE0
7FF8
7FFC
FFFE
FFFE
FFFE
F800
F800
F800
F800
F800
FFFE
FFFE
7FFE
3FFC
0FF0
07C0
07C0
07C0
07C0
07C0
ENDCHAR
STARTCHAR 00A9
ENCODING 169
SWIDTH 888 0
DWIDTH 32 0
BBX 28 26 2 0
BITMAP
0FFFFF00
1FFFFFC0
3FFFFFE0
7FFFFFF0
7FFFFFF0
FC0001F0
F80001F0
F807E1F0
F80FE1F0
F81C61F0
F83001F0
F86001F0
F8C001F0
F9C001F0
F98001F0
F98001F0
F98001F0
F8FFE1F0
F87FE1F0
F80001F0
FC0001F0
7FFFFFF0
7FFFFFF0
3FFFFFE0
1FFFFFC0
0FFFFF00
ENDCHAR
STARTCHAR 00AE
ENCODING 174
SWIDTH 888 0
DWIDTH 32 0
BBX 28 26 2 0
BITMAP
0FFFFF00
3FFFFFC0
7FFFFFE0
7FFFFFE0
FFFFFFF0
F80001F0
F80001F0
F8FFE1F0
F8FFF1F0
F8C031F0
F8C031F0
F8C031F0
F8FFF1F0
F8FFE1F0
F8F801F0
F8DE01F0
F8C781F0
F8C3F1F0
F8C0F1F0
F80001F0
F80001F0
FFFFFFF0
7FFFFFE0
7FFFFFE0
3FFFFFC0
0FFFFF00
ENDCHAR
STARTCHAR 00BB
ENCODING 187
SWIDTH 1000 0
DWIDTH 36 0
BBX 0 0 0 0
BITMAP
ENDCHAR
STARTCHAR 2010
ENCODING 8208
SWIDTH 527 0
DWIDTH 19 0
BBX 17 6 1 10
BITMAP
FFFF80
FFFF80
FFFF80
FFFF80
FFFF80
FFFF80
ENDCHAR
STARTCHAR 2018
ENCODING 8216
SWIDTH 333 0
DWIDTH 12 0
BBX 9 9 2 17
BITMAP
F800
F800
F800
F800
FF80
FF80
FF80
FF80
7F80
ENDCHAR
STARTCHAR 2019
ENCODING 8217
SWIDTH 333 0
DWIDTH 12 0
BBX 9 9 2 17
BITMAP
FF00
FF80
FF80
FF80
FF80
0F80
0F80
0F80
0F80
ENDCHAR
STARTCHAR 201C
ENCODING 8220
SWIDTH 638 0
DWIDTH 23 0
BBX 20 9 2 17
BITMAP
F81F00
F81F00
F81F00
F81F00
FF9FF0
FF9FF0
FF9FF0
FF9FF0
7F8FF0
ENDCHAR
STARTCHAR 201D
ENCODING 8221
SWIDTH 694 0
DWIDTH 25 0
BBX 20 9 2 17
BITMAP
FF9FF0
FF9FF0
FF9FF0
FF9FF0
FF9FF0
0F81F0
0F81F0
0F81F0
0F81F0
ENDCHAR
STARTCHAR 2122
ENCODING 8482
SWIDTH 833 0
DWIDTH 30 0
BBX 25 12 3 14
BITMAP
FFE79E00
FFEFDF00
CC0DFB80
0C0CF180
0C0CE180
0C0C6180
0C0C6180
0C0C6180
0C0C6180
0C0C6180
0C0C6180
0C0C6180
ENDCHAR
ENDFONT
